<svg xmlns="http://www.w3.org/2000/svg" viewBox="0 0 45.82 122.29"><defs><style>.cls-1{fill:none;stroke:#d22630;stroke-linecap:round;stroke-linejoin:round;stroke-width:2.29px;}</style></defs><title>Artboard 61</title><g id="Page_28" data-name="Page 28"><polyline class="cls-1" points="41.91 3.38 32.41 12.89 41.91 22.39 32.41 31.89 41.91 41.39 32.41 50.9 41.91 60.4 32.41 69.9 41.91 79.4 32.41 88.9 41.91 98.4 32.41 107.91 41.91 117.41"/><polyline class="cls-1" points="32.41 3.38 22.91 12.89 32.41 22.39 22.91 31.89 32.41 41.39 22.91 50.9 32.41 60.4 22.91 69.9 32.41 79.4 22.91 88.9 32.41 98.4 22.91 107.91 32.41 117.41"/><polyline class="cls-1" points="22.91 3.38 13.41 12.89 22.91 22.39 13.41 31.89 22.91 41.39 13.41 50.9 22.91 60.4 13.41 69.9 22.91 79.4 13.41 88.9 22.91 98.4 13.41 107.91 22.91 117.41"/><polyline class="cls-1" points="13.41 3.38 3.9 12.89 13.41 22.39 3.9 31.89 13.41 41.39 3.9 50.9 13.41 60.4 3.9 69.9 13.41 79.4 3.9 88.9 13.41 98.4 3.9 107.91 13.41 117.41"/></g></svg>
