<svg xmlns="http://www.w3.org/2000/svg" viewBox="0 0 59.84 123.29"><title>Artboard 61</title><g id="Page_28" data-name="Page 28"><path d="M46.79,9.94a1,1,0,1,1,1-1,1,1,0,0,1-1,1"/><path d="M46.79,9.94a1,1,0,1,1,1-1,1,1,0,0,1-1,1"/><path d="M53.51,16.4a1,1,0,1,1,1-1,1,1,0,0,1-1,1"/><path d="M46.79,23.12a1,1,0,1,1,1-1,1,1,0,0,1-1,1"/><path d="M46.79,23.12a1,1,0,1,1,1-1,1,1,0,0,1-1,1"/><path d="M53.51,29.57a1,1,0,1,1,1-1,1,1,0,0,1-1,1"/><path d="M46.79,36.29a1,1,0,1,1,1-1,1,1,0,0,1-1,1"/><path d="M46.79,36.29a1,1,0,1,1,1-1,1,1,0,0,1-1,1"/><path d="M53.51,42.75a1,1,0,1,1,1-1,1,1,0,0,1-1,1"/><path d="M46.79,49.47a1,1,0,1,1,1-1,1,1,0,0,1-1,1"/><path d="M46.79,49.47a1,1,0,1,1,1-1,1,1,0,0,1-1,1"/><path d="M53.51,55.92a1,1,0,1,1,1-1,1,1,0,0,1-1,1"/><path d="M46.79,62.65a1,1,0,1,1,1-1,1,1,0,0,1-1,1"/><path d="M46.79,62.65a1,1,0,1,1,1-1,1,1,0,0,1-1,1"/><path d="M53.51,69.1a1,1,0,1,1,1-1,1,1,0,0,1-1,1"/><path d="M46.79,75.82a1,1,0,1,1,1-1,1,1,0,0,1-1,1"/><path d="M46.79,75.82a1,1,0,1,1,1-1,1,1,0,0,1-1,1"/><path d="M53.51,82.27a1,1,0,1,1,1-1,1,1,0,0,1-1,1"/><path d="M46.79,89a1,1,0,1,1,1-1,1,1,0,0,1-1,1"/><path d="M46.79,89a1,1,0,1,1,1-1,1,1,0,0,1-1,1"/><path d="M53.51,95.45a1,1,0,1,1,1-1,1,1,0,0,1-1,1"/><path d="M46.79,102.17a1,1,0,1,1,1-1,1,1,0,0,1-1,1"/><path d="M46.79,102.17a1,1,0,1,1,1-1,1,1,0,0,1-1,1"/><path d="M53.51,108.63a1,1,0,1,1,1-1,1,1,0,0,1-1,1"/><path d="M46.79,115.35a1,1,0,1,1,1-1,1,1,0,0,1-1,1"/><path d="M46.79,115.35a1,1,0,1,1,1-1,1,1,0,0,1-1,1"/><path d="M46.79,9.94a1,1,0,1,1,1-1,1,1,0,0,1-1,1"/><path d="M33.62,9.94a1,1,0,1,1,1-1,1,1,0,0,1-1,1"/><path d="M46.79,9.94a1,1,0,1,1,1-1,1,1,0,0,1-1,1"/><path d="M46.79,23.12a1,1,0,1,1,1-1,1,1,0,0,1-1,1"/><path d="M33.62,9.94a1,1,0,1,1,1-1,1,1,0,0,1-1,1"/><path d="M40.34,16.4a1,1,0,1,1,1-1,1,1,0,0,1-1,1"/><path d="M33.62,23.12a1,1,0,1,1,1-1,1,1,0,0,1-1,1"/><path d="M46.79,23.12a1,1,0,1,1,1-1,1,1,0,0,1-1,1"/><path d="M46.79,36.29a1,1,0,1,1,1-1,1,1,0,0,1-1,1"/><path d="M33.62,23.12a1,1,0,1,1,1-1,1,1,0,0,1-1,1"/><path d="M40.34,29.57a1,1,0,1,1,1-1,1,1,0,0,1-1,1"/><path d="M33.62,36.29a1,1,0,1,1,1-1,1,1,0,0,1-1,1"/><path d="M46.79,36.29a1,1,0,1,1,1-1,1,1,0,0,1-1,1"/><path d="M46.79,49.47a1,1,0,1,1,1-1,1,1,0,0,1-1,1"/><path d="M33.62,36.29a1,1,0,1,1,1-1,1,1,0,0,1-1,1"/><path d="M40.34,42.75a1,1,0,1,1,1-1,1,1,0,0,1-1,1"/><path d="M33.62,49.47a1,1,0,1,1,1-1,1,1,0,0,1-1,1"/><path d="M46.79,49.47a1,1,0,1,1,1-1,1,1,0,0,1-1,1"/><path d="M46.79,62.65a1,1,0,1,1,1-1,1,1,0,0,1-1,1"/><path d="M33.62,49.47a1,1,0,1,1,1-1,1,1,0,0,1-1,1"/><path d="M40.34,55.92a1,1,0,1,1,1-1,1,1,0,0,1-1,1"/><path d="M33.62,62.65a1,1,0,1,1,1-1,1,1,0,0,1-1,1"/><path d="M46.79,62.65a1,1,0,1,1,1-1,1,1,0,0,1-1,1"/><path d="M46.79,75.82a1,1,0,1,1,1-1,1,1,0,0,1-1,1"/><path d="M33.62,62.65a1,1,0,1,1,1-1,1,1,0,0,1-1,1"/><path d="M40.34,69.1a1,1,0,1,1,1-1,1,1,0,0,1-1,1"/><path d="M33.62,75.82a1,1,0,1,1,1-1,1,1,0,0,1-1,1"/><path d="M46.79,75.82a1,1,0,1,1,1-1,1,1,0,0,1-1,1"/><path d="M46.79,89a1,1,0,1,1,1-1,1,1,0,0,1-1,1"/><path d="M33.62,75.82a1,1,0,1,1,1-1,1,1,0,0,1-1,1"/><path d="M40.34,82.27a1,1,0,1,1,1-1,1,1,0,0,1-1,1"/><path d="M33.62,89a1,1,0,1,1,1-1,1,1,0,0,1-1,1"/><path d="M46.79,89a1,1,0,1,1,1-1,1,1,0,0,1-1,1"/><path d="M46.79,102.17a1,1,0,1,1,1-1,1,1,0,0,1-1,1"/><path d="M33.62,89a1,1,0,1,1,1-1,1,1,0,0,1-1,1"/><path d="M40.34,95.45a1,1,0,1,1,1-1,1,1,0,0,1-1,1"/><path d="M33.62,102.17a1,1,0,1,1,1-1,1,1,0,0,1-1,1"/><path d="M46.79,102.17a1,1,0,1,1,1-1,1,1,0,0,1-1,1"/><path d="M46.79,115.35a1,1,0,1,1,1-1,1,1,0,0,1-1,1"/><path d="M33.62,102.17a1,1,0,1,1,1-1,1,1,0,0,1-1,1"/><path d="M40.34,108.63a1,1,0,1,1,1-1,1,1,0,0,1-1,1"/><path d="M33.62,115.35a1,1,0,1,1,1-1,1,1,0,0,1-1,1"/><path d="M46.79,115.35a1,1,0,1,1,1-1,1,1,0,0,1-1,1"/><path d="M33.62,115.35a1,1,0,1,1,1-1,1,1,0,0,1-1,1"/><path d="M33.62,9.94a1,1,0,1,1,1-1,1,1,0,0,1-1,1"/><path d="M20.44,9.94a1,1,0,1,1,1-1,1,1,0,0,1-1,1"/><path d="M33.62,9.94a1,1,0,1,1,1-1,1,1,0,0,1-1,1"/><path d="M33.62,23.12a1,1,0,1,1,1-1,1,1,0,0,1-1,1"/><path d="M20.44,9.94a1,1,0,1,1,1-1,1,1,0,0,1-1,1"/><path d="M27.16,16.4a1,1,0,1,1,1-1,1,1,0,0,1-1,1"/><path d="M20.44,23.12a1,1,0,1,1,1-1,1,1,0,0,1-1,1"/><path d="M33.62,23.12a1,1,0,1,1,1-1,1,1,0,0,1-1,1"/><path d="M33.62,36.29a1,1,0,1,1,1-1,1,1,0,0,1-1,1"/><path d="M20.44,23.12a1,1,0,1,1,1-1,1,1,0,0,1-1,1"/><path d="M27.16,29.57a1,1,0,1,1,1-1,1,1,0,0,1-1,1"/><path d="M20.44,36.29a1,1,0,1,1,1-1,1,1,0,0,1-1,1"/><path d="M33.62,36.29a1,1,0,1,1,1-1,1,1,0,0,1-1,1"/><path d="M33.62,49.47a1,1,0,1,1,1-1,1,1,0,0,1-1,1"/><path d="M20.44,36.29a1,1,0,1,1,1-1,1,1,0,0,1-1,1"/><path d="M27.16,42.75a1,1,0,1,1,1-1,1,1,0,0,1-1,1"/><path d="M20.44,49.47a1,1,0,1,1,1-1,1,1,0,0,1-1,1"/><path d="M33.62,49.47a1,1,0,1,1,1-1,1,1,0,0,1-1,1"/><path d="M33.62,62.65a1,1,0,1,1,1-1,1,1,0,0,1-1,1"/><path d="M20.44,49.47a1,1,0,1,1,1-1,1,1,0,0,1-1,1"/><path d="M27.16,55.92a1,1,0,1,1,1-1,1,1,0,0,1-1,1"/><path d="M20.44,62.65a1,1,0,1,1,1-1,1,1,0,0,1-1,1"/><path d="M33.62,62.65a1,1,0,1,1,1-1,1,1,0,0,1-1,1"/><path d="M33.62,75.82a1,1,0,1,1,1-1,1,1,0,0,1-1,1"/><path d="M20.44,62.65a1,1,0,1,1,1-1,1,1,0,0,1-1,1"/><path d="M27.16,69.1a1,1,0,1,1,1-1,1,1,0,0,1-1,1"/><path d="M20.44,75.82a1,1,0,1,1,1-1,1,1,0,0,1-1,1"/><path d="M33.62,75.82a1,1,0,1,1,1-1,1,1,0,0,1-1,1"/><path d="M33.62,89a1,1,0,1,1,1-1,1,1,0,0,1-1,1"/><path d="M20.44,75.82a1,1,0,1,1,1-1,1,1,0,0,1-1,1"/><path d="M27.16,82.27a1,1,0,1,1,1-1,1,1,0,0,1-1,1"/><path d="M20.44,89a1,1,0,1,1,1-1,1,1,0,0,1-1,1"/><path d="M33.62,89a1,1,0,1,1,1-1,1,1,0,0,1-1,1"/><path d="M33.62,102.17a1,1,0,1,1,1-1,1,1,0,0,1-1,1"/><path d="M20.44,89a1,1,0,1,1,1-1,1,1,0,0,1-1,1"/><path d="M27.16,95.45a1,1,0,1,1,1-1,1,1,0,0,1-1,1"/><path d="M20.44,102.17a1,1,0,1,1,1-1,1,1,0,0,1-1,1"/><path d="M33.62,102.17a1,1,0,1,1,1-1,1,1,0,0,1-1,1"/><path d="M33.62,115.35a1,1,0,1,1,1-1,1,1,0,0,1-1,1"/><path d="M20.44,102.17a1,1,0,1,1,1-1,1,1,0,0,1-1,1"/><path d="M27.16,108.63a1,1,0,1,1,1-1,1,1,0,0,1-1,1"/><path d="M20.44,115.35a1,1,0,1,1,1-1,1,1,0,0,1-1,1"/><path d="M33.62,115.35a1,1,0,1,1,1-1,1,1,0,0,1-1,1"/><path d="M20.44,115.35a1,1,0,1,1,1-1,1,1,0,0,1-1,1"/><path d="M20.44,9.94a1,1,0,1,1,1-1,1,1,0,0,1-1,1"/><path d="M7.26,9.94a1,1,0,1,1,1-1,1,1,0,0,1-1,1"/><path d="M20.44,9.94a1,1,0,1,1,1-1,1,1,0,0,1-1,1"/><path d="M20.44,23.12a1,1,0,1,1,1-1,1,1,0,0,1-1,1"/><path d="M7.26,9.94a1,1,0,1,1,1-1,1,1,0,0,1-1,1"/><path d="M14,16.4a1,1,0,1,1,1-1,1,1,0,0,1-1,1"/><path d="M7.26,23.12a1,1,0,1,1,1-1,1,1,0,0,1-1,1"/><path d="M20.44,23.12a1,1,0,1,1,1-1,1,1,0,0,1-1,1"/><path d="M20.44,36.29a1,1,0,1,1,1-1,1,1,0,0,1-1,1"/><path d="M7.26,23.12a1,1,0,1,1,1-1,1,1,0,0,1-1,1"/><path d="M14,29.57a1,1,0,1,1,1-1,1,1,0,0,1-1,1"/><path d="M7.26,36.29a1,1,0,1,1,1-1,1,1,0,0,1-1,1"/><path d="M20.44,36.29a1,1,0,1,1,1-1,1,1,0,0,1-1,1"/><path d="M20.44,49.47a1,1,0,1,1,1-1,1,1,0,0,1-1,1"/><path d="M7.26,36.29a1,1,0,1,1,1-1,1,1,0,0,1-1,1"/><path d="M14,42.75a1,1,0,1,1,1-1,1,1,0,0,1-1,1"/><path d="M7.26,49.47a1,1,0,1,1,1-1,1,1,0,0,1-1,1"/><path d="M20.44,49.47a1,1,0,1,1,1-1,1,1,0,0,1-1,1"/><path d="M20.44,62.65a1,1,0,1,1,1-1,1,1,0,0,1-1,1"/><path d="M7.26,49.47a1,1,0,1,1,1-1,1,1,0,0,1-1,1"/><path d="M14,55.92a1,1,0,1,1,1-1,1,1,0,0,1-1,1"/><path d="M7.26,62.65a1,1,0,1,1,1-1,1,1,0,0,1-1,1"/><path d="M20.44,62.65a1,1,0,1,1,1-1,1,1,0,0,1-1,1"/><path d="M20.44,75.82a1,1,0,1,1,1-1,1,1,0,0,1-1,1"/><path d="M7.26,62.65a1,1,0,1,1,1-1,1,1,0,0,1-1,1"/><path d="M14,69.1a1,1,0,1,1,1-1,1,1,0,0,1-1,1"/><path d="M7.26,75.82a1,1,0,1,1,1-1,1,1,0,0,1-1,1"/><path d="M20.44,75.82a1,1,0,1,1,1-1,1,1,0,0,1-1,1"/><path d="M20.44,89a1,1,0,1,1,1-1,1,1,0,0,1-1,1"/><path d="M7.26,75.82a1,1,0,1,1,1-1,1,1,0,0,1-1,1"/><path d="M14,82.27a1,1,0,1,1,1-1,1,1,0,0,1-1,1"/><path d="M7.26,89a1,1,0,1,1,1-1,1,1,0,0,1-1,1"/><path d="M20.44,89a1,1,0,1,1,1-1,1,1,0,0,1-1,1"/><path d="M20.44,102.17a1,1,0,1,1,1-1,1,1,0,0,1-1,1"/><path d="M7.26,89a1,1,0,1,1,1-1,1,1,0,0,1-1,1"/><path d="M14,95.45a1,1,0,1,1,1-1,1,1,0,0,1-1,1"/><path d="M7.26,102.17a1,1,0,1,1,1-1,1,1,0,0,1-1,1"/><path d="M20.44,102.17a1,1,0,1,1,1-1,1,1,0,0,1-1,1"/><path d="M20.44,115.35a1,1,0,1,1,1-1,1,1,0,0,1-1,1"/><path d="M7.26,102.17a1,1,0,1,1,1-1,1,1,0,0,1-1,1"/><path d="M14,108.63a1,1,0,1,1,1-1,1,1,0,0,1-1,1"/><path d="M7.26,115.35a1,1,0,1,1,1-1,1,1,0,0,1-1,1"/><path d="M20.44,115.35a1,1,0,1,1,1-1,1,1,0,0,1-1,1"/><path d="M7.26,115.35a1,1,0,1,1,1-1,1,1,0,0,1-1,1"/></g></svg>